<?xml version="1.0" standalone="no"?>
<!DOCTYPE svg PUBLIC "-//W3C//DTD SVG 20010904//EN"
 "http://www.w3.org/TR/2001/REC-SVG-20010904/DTD/svg10.dtd">
<svg version="1.0" xmlns="http://www.w3.org/2000/svg"
 width="400.000000pt" height="400.000000pt" viewBox="0 0 400.000000 400.000000"
 preserveAspectRatio="xMidYMid meet">

<g transform="translate(0.000000,400.000000) scale(0.100000,-0.100000)"
fill="#000000" stroke="none">
<path d="M38 3986 c-10 -7 -18 -18 -18 -25 0 -6 -4 -11 -10 -11 -5 0 -10 -21
-10 -47 0 -43 1 -45 18 -30 9 9 26 33 37 54 10 21 26 46 34 56 13 15 12 17
-10 17 -13 0 -32 -7 -41 -14z"/>
<path d="M476 3985 c4 -8 10 -15 14 -15 12 0 65 -53 84 -83 10 -16 20 -26 24
-23 7 8 -33 83 -61 114 -24 25 -70 31 -61 7z"/>
<path d="M1164 3963 c-10 -21 -17 -41 -16 -45 1 -5 -2 -8 -8 -8 -5 0 -10 -4
-10 -9 0 -5 -37 -64 -82 -131 -46 -68 -78 -125 -72 -127 9 -3 9 -10 0 -28 -12
-28 -29 -35 -19 -8 10 26 -10 8 -45 -41 -18 -25 -28 -46 -23 -46 15 0 14 -27
-1 -36 -8 -5 -9 -2 -4 11 7 18 6 18 -14 0 -11 -10 -20 -22 -20 -27 0 -4 -10
-18 -21 -29 -15 -15 -18 -23 -10 -29 13 -7 12 -11 -64 -131 -21 -35 -47 -73
-57 -83 -10 -11 -18 -24 -18 -29 0 -5 -26 -48 -58 -95 -32 -48 -61 -91 -63
-97 -2 -5 -58 -91 -123 -190 -65 -99 -153 -232 -194 -295 -41 -63 -113 -172
-159 -242 l-83 -127 0 -261 c0 -176 3 -260 11 -260 5 0 7 -5 4 -10 -3 -5 -1
-10 4 -10 6 0 11 6 11 13 1 8 5 6 13 -4 20 -26 37 -7 140 149 94 144 115 178
203 342 62 116 73 134 105 185 15 22 39 64 54 94 15 30 53 88 84 130 32 42 75
104 95 137 21 34 46 71 57 83 10 11 19 24 19 29 0 5 6 15 14 21 11 9 15 6 18
-20 5 -33 2 -136 -6 -207 -3 -25 1 -57 10 -77 19 -46 19 -229 0 -287 -8 -24
-13 -54 -13 -68 2 -19 -3 -26 -21 -28 -22 -3 -23 -1 -17 27 8 38 -13 66 -33
44 -17 -17 -6 -84 13 -77 7 3 15 -2 18 -10 4 -10 1 -16 -9 -16 -13 0 -15 -10
-8 -67 10 -103 19 -118 34 -60 7 27 18 47 26 47 18 0 18 -15 0 -33 -30 -30
-32 -221 -3 -261 7 -8 27 -17 45 -18 32 -2 41 -11 22 -23 -15 -9 -12 -51 5
-65 8 -7 15 -19 15 -26 0 -8 7 -14 15 -14 9 0 12 -6 9 -15 -5 -12 -10 -13 -20
-4 -20 17 -37 0 -30 -31 5 -29 -9 -43 -36 -36 -7 1 -10 1 -6 -1 4 -2 5 -10 2
-18 -6 -15 46 -55 71 -55 14 0 16 8 13 45 -2 36 -1 42 8 30 7 -9 15 -55 19
-103 4 -48 11 -109 17 -137 5 -27 11 -61 14 -75 9 -62 75 -230 102 -258 6 -7
12 -16 12 -20 0 -4 11 -20 25 -36 14 -17 28 -40 31 -53 4 -13 10 -23 15 -23 5
0 9 -10 9 -22 0 -13 10 -43 21 -68 22 -47 28 -108 12 -119 -5 -3 -13 -14 -16
-25 -6 -14 -4 -17 8 -12 9 3 13 2 10 -4 -3 -6 -13 -10 -21 -10 -8 0 -14 -5
-14 -12 0 -6 -3 -8 -7 -4 -5 4 -8 12 -8 17 0 19 -48 -2 -170 -76 -141 -84
-223 -125 -228 -112 -3 7 -6 6 -6 -4 -1 -26 -26 -40 -134 -76 -56 -18 -111
-38 -122 -43 -11 -5 -38 -14 -60 -20 -53 -16 -238 -96 -278 -120 -32 -20 -25
-20 1271 -20 1151 0 1302 2 1302 15 0 9 10 15 23 16 21 1 21 1 -3 8 -21 6 -24
13 -22 37 2 16 10 33 18 37 11 6 12 12 4 22 -8 9 -3 27 16 66 18 35 23 54 16
57 -7 2 -12 10 -12 18 0 13 18 52 30 64 11 11 30 78 30 108 0 17 9 46 20 64
11 18 20 47 20 65 0 17 5 35 11 38 6 4 8 13 5 21 -7 17 10 28 18 12 3 -7 3 -2
0 12 -3 15 4 42 16 65 19 37 21 38 15 10 -3 -16 -8 -123 -12 -237 l-6 -207 24
-26 c13 -14 64 -58 112 -97 69 -55 93 -81 110 -119 l21 -49 403 0 403 0 0
1445 0 1446 -327 -1 -328 -1 -27 48 c-15 26 -35 59 -45 72 -10 13 -18 27 -18
32 0 4 -3 10 -6 14 -10 9 22 86 32 79 11 -6 12 10 2 20 -4 4 -8 21 -9 37 -2
41 -138 219 -273 357 l-61 63 0 157 c0 194 -6 232 -32 232 -18 0 -19 -5 -14
-47 11 -91 12 -114 5 -125 -11 -17 -20 26 -22 105 -2 63 -3 67 -26 67 -21 0
-23 -3 -18 -32 3 -18 9 -86 13 -150 5 -102 4 -118 -9 -118 -9 0 -22 6 -29 13
-40 37 -218 137 -278 155 -19 6 -66 23 -105 37 -171 63 -432 71 -605 19 -60
-18 -210 -85 -210 -94 0 -3 -15 -11 -32 -19 -42 -18 -152 -90 -156 -102 -2 -5
-9 -9 -16 -9 -24 0 -166 -141 -189 -188 -13 -26 -29 -47 -36 -47 -7 0 -18 -8
-25 -17 -7 -10 -18 -18 -24 -18 -5 0 -15 -12 -21 -27 -19 -45 -39 -77 -60 -94
-10 -8 -31 -38 -45 -65 -54 -100 -77 -138 -87 -144 -5 -4 -17 -33 -25 -66 -20
-78 -42 -124 -59 -124 -12 0 -12 -5 -3 -25 6 -14 8 -28 4 -33 -4 -4 -44 -6
-89 -5 -45 1 -106 2 -134 2 -41 0 -53 3 -53 15 0 9 4 16 8 16 5 0 24 33 42 73
19 39 60 111 92 159 32 47 58 90 58 94 0 4 16 27 36 50 19 24 55 84 79 132 24
48 58 103 75 122 17 19 40 52 50 72 11 20 24 39 30 43 13 8 75 104 113 175 16
30 49 86 73 123 24 37 44 70 44 72 0 3 -17 5 -39 5 -35 0 -41 -4 -57 -37z m6
-67 c0 -3 -4 -8 -10 -11 -5 -3 -10 -1 -10 4 0 6 5 11 10 11 6 0 10 -2 10 -4z
m-67 -91 c-3 -9 -8 -14 -10 -11 -3 3 -2 9 2 15 9 16 15 13 8 -4z m-57 -91 c-4
-9 -9 -15 -11 -12 -3 3 -3 13 1 22 4 9 9 15 11 12 3 -3 3 -13 -1 -22z m-32
-39 c-7 -16 -24 -21 -24 -6 0 8 7 13 27 20 1 1 0 -6 -3 -14z m-80 -120 c-4 -8
-8 -15 -10 -15 -2 0 -4 7 -4 15 0 8 4 15 10 15 5 0 7 -7 4 -15z m1916 -5 c10
0 21 -4 25 -10 3 -5 12 -7 20 -4 7 3 19 -4 25 -17 7 -12 44 -64 84 -115 106
-140 136 -182 136 -193 0 -6 9 -15 20 -21 20 -10 27 -44 13 -53 -5 -3 -6 -28
-5 -56 2 -28 8 -48 13 -45 5 3 9 -12 9 -34 0 -30 7 -46 30 -70 34 -36 39 -55
13 -45 -10 4 -5 -5 12 -19 l30 -26 -20 -38 c-10 -22 -19 -43 -19 -47 -1 -4 -8
-12 -16 -17 -12 -8 -12 -11 1 -27 35 -42 44 -116 16 -134 -6 -5 -6 -22 2 -50
21 -74 32 -162 25 -204 -13 -88 -40 -168 -54 -160 -4 3 -15 -4 -25 -15 -25
-27 -37 -25 -29 5 6 25 -12 85 -26 85 -4 0 -12 12 -19 26 -7 15 -17 24 -25 21
-7 -3 -19 0 -25 6 -6 6 -11 7 -11 1 0 -5 5 -15 12 -22 7 -7 8 -12 4 -12 -5 0
-26 18 -47 40 -41 42 -125 74 -176 68 -23 -3 -18 -6 26 -16 73 -17 150 -73
155 -114 1 -3 4 -10 9 -14 11 -11 9 -54 -3 -54 -5 0 -10 -4 -10 -10 0 -5 6
-10 14 -10 9 0 13 -9 11 -25 -3 -28 11 -34 18 -7 4 13 5 13 6 -4 2 -32 -38
-40 -58 -12 -24 33 -107 109 -126 117 -6 2 -19 10 -30 17 -11 8 -26 14 -33 14
-8 0 -34 17 -58 39 -28 24 -58 41 -83 45 -21 3 -51 13 -67 21 l-29 15 30 1
c17 1 66 1 110 1 l80 0 -65 9 c-36 5 -107 17 -158 26 -87 16 -94 19 -107 48
-7 16 -15 39 -17 50 -2 12 -10 19 -21 17 -9 -2 -26 2 -38 9 -12 6 -49 13 -83
16 -104 8 -141 11 -146 13 -3 1 -9 2 -13 1 -5 -1 -18 10 -29 24 -17 21 -22 23
-41 13 -32 -16 -38 -30 -19 -45 16 -12 15 -14 -8 -33 -35 -28 -57 -25 -79 10
-10 16 -20 28 -22 25 -3 -2 -19 -6 -37 -10 -44 -7 -95 23 -121 73 -7 13 -21
22 -34 22 -13 0 -28 5 -33 10 -7 7 -18 3 -35 -13 -14 -14 -42 -28 -66 -32 -24
-4 -43 -11 -43 -16 0 -5 -12 -9 -26 -9 -14 0 -23 4 -19 9 12 20 -18 22 -58 3
-23 -11 -61 -23 -84 -27 -24 -4 -43 -10 -43 -15 0 -4 -9 -10 -20 -13 -11 -3
-20 -12 -20 -20 0 -19 31 -31 40 -17 5 8 9 7 13 -4 4 -10 -1 -20 -13 -26 -11
-6 -20 -17 -20 -25 0 -8 -8 -15 -19 -15 -10 0 -29 -8 -42 -18 -13 -10 -38 -18
-56 -17 -17 0 -29 -3 -26 -7 2 -5 -21 -8 -52 -8 -32 0 -54 4 -50 9 10 18 -46
51 -86 51 -22 0 -39 5 -39 10 0 6 14 10 31 10 37 0 55 17 54 50 -2 53 -14 70
-51 70 -20 0 -43 -7 -52 -17 -16 -16 -17 -14 -23 28 -4 28 -2 47 5 51 7 5 10
39 8 97 -3 82 0 94 28 157 37 81 43 95 65 154 40 108 174 330 199 330 8 0 17
7 20 16 5 12 8 13 19 3 9 -9 12 -32 11 -68 l-3 -56 10 43 c7 31 17 46 34 52
13 5 26 18 30 29 8 25 21 27 29 6 4 -11 13 -14 31 -9 18 4 25 2 25 -9 0 -8 12
-17 28 -19 43 -8 57 -12 63 -22 10 -13 92 -11 97 3 6 17 26 13 40 -9 17 -28
35 -25 65 11 15 18 28 26 32 20 11 -19 22 -12 32 22 l10 32 11 -27 c18 -43 36
-47 28 -6 -7 39 0 46 44 43 29 -2 90 -32 90 -44 0 -22 34 -20 54 4 17 20 24
23 34 13 9 -9 12 -7 12 10 0 15 4 20 15 15 10 -3 15 0 13 8 -2 9 4 13 14 11
12 -2 16 2 12 13 -8 20 5 53 14 38 4 -6 22 -14 40 -18 27 -5 33 -3 40 14 7 19
9 20 36 6 26 -14 30 -14 46 5 17 19 17 19 30 -5 16 -30 30 -32 30 -5 0 24 36
22 55 -3 19 -26 27 -20 20 14 -5 22 -4 29 4 25 6 -4 9 -11 6 -16 -3 -5 7 -16
22 -24 24 -12 33 -12 59 -1 18 7 34 17 38 23 3 5 22 7 42 5 20 -2 42 2 50 8
11 9 18 8 32 -4 13 -12 21 -14 29 -6 7 7 17 8 30 1 15 -8 23 -5 43 17 14 15
27 23 28 19 2 -4 12 -8 22 -8z m146 -52 c10 -32 -3 -32 -20 1 -14 26 -14 30
-1 25 8 -3 17 -15 21 -26z m244 -408 c0 -5 -4 -10 -10 -10 -5 0 -10 5 -10 10
0 6 5 10 10 10 6 0 10 -4 10 -10z m-2230 -560 c0 -16 -4 -30 -10 -30 -5 0 -10
14 -10 30 0 17 5 30 10 30 6 0 10 -13 10 -30z m-89 -50 c5 0 9 7 9 16 0 8 5
12 11 9 6 -4 8 -13 5 -21 -3 -8 -1 -14 4 -14 22 0 8 -19 -21 -29 -26 -9 -29
-13 -20 -25 8 -9 8 -16 2 -20 -6 -4 -5 -20 3 -44 12 -35 12 -39 -16 -79 -16
-24 -31 -43 -34 -43 -6 0 3 164 12 218 3 17 9 32 14 32 6 0 11 8 11 18 1 16 2
16 6 0 2 -10 9 -18 14 -18z m1369 -100 c0 -5 -2 -10 -4 -10 -3 0 -8 5 -11 10
-3 6 -1 10 4 10 6 0 11 -4 11 -10z m-1147 -57 c-7 -2 -19 -2 -25 0 -7 3 -2 5
12 5 14 0 19 -2 13 -5z m2191 -62 c-10 -17 -21 -31 -25 -31 -3 0 -11 -12 -18
-26 -6 -15 -14 -24 -17 -21 -3 3 12 30 32 61 39 58 59 70 28 17z m-1320 -2
c-6 -11 -24 -2 -24 11 0 5 7 7 15 4 8 -4 12 -10 9 -15z m1440 -28 c10 -11 20
-37 23 -58 l5 -39 -34 4 c-25 3 -38 -2 -52 -17 -11 -12 -27 -21 -36 -21 -9 0
-31 -16 -50 -35 -18 -19 -35 -33 -37 -31 -2 2 3 21 11 41 9 21 16 48 16 61 0
35 31 108 40 93 6 -9 13 -8 31 5 31 21 62 20 83 -3z m-2534 -18 c0 -5 -5 -15
-10 -23 -8 -12 -10 -11 -10 8 0 12 5 22 10 22 6 0 10 -3 10 -7z m26 -30 c-10
-10 -19 5 -10 18 6 11 8 11 12 0 2 -7 1 -15 -2 -18z m2274 -58 c0 -9 -6 -12
-15 -9 -8 4 -12 10 -9 15 8 14 24 10 24 -6z m-1194 -13 c6 -4 14 -25 18 -47 4
-22 9 -53 13 -70 5 -26 4 -28 -10 -17 -23 20 -29 -10 -12 -71 28 -105 36 -127
45 -127 4 0 6 -9 3 -20 -3 -11 0 -20 6 -20 6 0 11 -7 11 -15 0 -7 6 -18 14
-22 7 -4 16 -15 19 -23 3 -8 6 2 6 24 1 31 4 37 18 32 9 -4 20 -1 24 6 6 9 21
1 56 -29 92 -77 271 -172 304 -161 7 2 -17 15 -52 27 -84 31 -181 96 -250 168
-51 54 -94 114 -71 99 5 -3 13 6 17 21 l6 27 19 -29 c23 -35 107 -72 194 -84
36 -5 70 -13 77 -16 8 -5 9 0 4 16 l-6 24 20 -25 c24 -30 39 -20 23 15 -6 14
-11 25 -9 25 1 0 34 3 72 6 39 2 95 11 125 19 30 8 67 17 83 20 25 5 39 25 17
25 -5 0 -10 6 -10 14 0 18 81 27 127 14 22 -6 39 -6 46 0 7 5 27 13 45 17 29
6 32 4 32 -17 0 -44 -29 -135 -59 -185 -60 -102 -164 -170 -294 -192 -29 -5
-40 -9 -25 -10 15 0 51 4 80 10 143 30 245 121 297 264 17 47 31 92 31 100 0
9 6 12 18 8 14 -5 15 -3 5 8 -15 16 -17 49 -3 49 6 0 10 7 10 15 0 9 10 15 26
15 20 0 25 -4 20 -16 -3 -9 -6 -20 -6 -25 0 -5 -7 -9 -15 -9 -11 0 -15 -11
-15 -43 0 -90 39 -73 76 33 10 30 24 64 31 75 12 18 13 18 13 -10 0 -41 9 -51
51 -53 29 -2 38 2 42 18 9 36 34 23 41 -22 l7 -43 21 33 c27 43 32 35 14 -19
-16 -45 -26 -110 -47 -297 -13 -117 -37 -173 -99 -234 -41 -41 -67 -42 -108
-4 -47 42 -57 15 -106 -264 -20 -114 -42 -184 -62 -200 -12 -10 -14 -7 -14 18
0 17 -4 34 -10 37 -5 3 -10 21 -10 38 0 26 2 29 11 17 9 -12 9 -11 4 5 -12 32
-14 98 -6 180 10 104 -3 158 -43 175 -17 8 -34 15 -38 18 -5 2 -8 -4 -8 -13 0
-9 -4 -14 -10 -10 -5 3 -6 13 -3 22 4 11 2 14 -8 11 -8 -3 -13 -11 -12 -17 2
-6 0 -11 -5 -11 -15 0 -67 32 -75 46 -5 9 -16 12 -32 8 -16 -4 -40 2 -65 15
-22 12 -57 21 -78 21 -73 1 -250 47 -272 70 -3 3 -38 20 -77 38 l-73 32 -25
-22 c-28 -25 -33 -56 -9 -65 14 -5 27 -7 72 -12 7 0 24 -13 37 -27 20 -22 25
-38 25 -79 l0 -53 -79 -7 c-44 -4 -84 -4 -90 -1 -5 4 -46 11 -91 17 -45 5
-103 18 -130 29 -27 11 -57 18 -67 16 -10 -2 -43 0 -73 6 -46 8 -56 7 -66 -7
-11 -15 -18 -15 -49 -5 -32 11 -36 15 -30 37 13 55 84 100 104 66 9 -16 12
-13 25 19 19 44 21 89 5 105 -19 19 0 37 20 19 16 -15 20 -13 44 25 20 30 29
62 37 127 16 132 49 285 63 294 6 4 20 5 29 2 10 -3 26 -1 35 5 21 12 53 14
69 3z m1124 -2 c0 -5 10 -10 23 -10 18 0 19 -2 7 -10 -17 -11 -90 -14 -90 -4
0 10 33 33 48 34 6 0 12 -4 12 -10z m-2258 -126 c4 -53 -19 -55 -24 -2 -2 24
-2 52 0 62 5 19 6 18 13 -2 4 -12 9 -38 11 -58z m10 -146 c-8 -8 -9 -4 -5 13
4 13 8 18 11 10 2 -7 -1 -18 -6 -23z m83 7 c27 0 31 -4 39 -42 7 -34 13 -43
30 -43 21 1 21 1 2 15 -11 8 -14 15 -7 15 18 0 71 -29 71 -39 0 -5 13 -13 28
-19 16 -5 44 -24 62 -41 27 -25 43 -31 78 -31 23 0 58 -6 77 -14 37 -16 93
-18 101 -4 3 4 13 8 22 8 11 -1 8 -6 -11 -16 -15 -8 -32 -12 -37 -9 -9 5 -14
-7 -11 -27 0 -3 -27 -16 -61 -27 -81 -27 -180 -28 -256 -1 -60 21 -129 83
-164 147 -19 34 -24 57 -7 33 8 -11 9 -7 4 18 -4 20 -3 32 4 32 7 0 7 8 1 26
-11 28 -12 58 -2 34 4 -8 20 -15 37 -15z m805 1 c0 -16 -18 -31 -27 -22 -8 8
5 36 17 36 5 0 10 -6 10 -14z m380 -55 c-1 -10 -11 -4 -30 19 -39 45 -39 62 0
25 17 -16 30 -36 30 -44z m-444 2 c-10 -10 -19 5 -10 18 6 11 8 11 12 0 2 -7
1 -15 -2 -18z m-844 -8 c3 -14 2 -27 -1 -30 -4 -2 -8 10 -9 26 -3 36 4 38 10
4z m758 -15 c0 -5 -5 -10 -11 -10 -5 0 -7 5 -4 10 3 6 8 10 11 10 2 0 4 -4 4
-10z m-743 -62 c-3 -8 -6 -5 -6 6 -1 11 2 17 5 13 3 -3 4 -12 1 -19z m43 -33
c0 -7 7 -16 16 -19 9 -4 14 -13 10 -21 -3 -9 0 -15 9 -15 8 0 25 -10 38 -23
14 -12 54 -33 90 -47 57 -22 63 -26 47 -37 -9 -7 -35 -17 -56 -22 -22 -5 -49
-13 -61 -16 -21 -7 -22 -5 -17 24 5 23 3 31 -8 31 -16 0 -48 35 -48 53 0 8 -3
8 -9 -2 -7 -11 -11 -10 -19 6 -6 11 -7 25 -2 33 5 8 6 18 4 22 -3 5 -10 22
-14 39 -8 26 -7 29 5 19 8 -7 15 -18 15 -25z m668 -10 c-13 -15 -32 -32 -43
-37 -11 -6 -2 7 20 30 43 45 61 50 23 7z m700 -427 c7 -7 12 -20 12 -29 0 -10
6 -19 13 -22 9 -3 7 -10 -6 -23 -17 -18 -19 -18 -31 -2 -9 12 -20 15 -37 11
-21 -6 -22 -5 -11 10 8 9 10 22 6 28 -4 7 1 18 11 26 23 16 28 16 43 1z m-48
-166 c14 -2 31 -9 38 -15 29 -23 -44 -35 -131 -21 -29 5 -35 9 -26 20 6 7 16
11 23 8 7 -3 19 2 26 11 8 9 20 13 29 9 9 -4 27 -9 41 -12z m-80 -262 c0 -14
-41 -39 -78 -46 -39 -8 -142 4 -142 17 0 5 11 9 25 9 14 0 25 4 25 9 0 5 21 9
46 9 26 1 49 4 52 7 9 9 72 5 72 -5z m-992 -430 c0 -9 -3 -7 -8 5 -5 11 -8 29
-8 40 0 16 2 15 8 -5 4 -14 8 -32 8 -40z m1034 18 c-9 -9 -15 -9 -24 0 -9 9
-7 12 12 12 19 0 21 -3 12 -12z m-1035 -60 c-3 -8 -6 -5 -6 6 -1 11 2 17 5 13
3 -3 4 -12 1 -19z m953 11 c0 -6 9 -8 20 -4 22 7 24 2 10 -25 -14 -26 -50 -15
-50 16 0 13 5 24 10 24 6 0 10 -5 10 -11z"/>
<path d="M2368 3458 c-7 -16 17 -65 24 -52 3 5 0 22 -7 38 -8 19 -14 24 -17
14z"/>
<path d="M2106 2691 c-4 -5 -2 -12 3 -15 5 -4 12 -2 15 3 4 5 2 12 -3 15 -5 4
-12 2 -15 -3z"/>
<path d="M2100 2630 c0 -5 5 -10 10 -10 6 0 10 5 10 10 0 6 -4 10 -10 10 -5 0
-10 -4 -10 -10z"/>
<path d="M3246 1911 c-3 -5 -7 -56 -8 -114 -2 -77 1 -109 10 -119 11 -11 12
-10 7 5 -5 11 -2 17 8 17 21 0 75 77 83 117 3 18 2 39 -4 46 -18 22 -90 58
-96 48z"/>
<path d="M2748 1813 c7 -3 16 -2 19 1 4 3 -2 6 -13 5 -11 0 -14 -3 -6 -6z"/>
<path d="M3096 1785 c-9 -26 -7 -32 5 -12 6 10 9 21 6 23 -2 3 -7 -2 -11 -11z"/>
<path d="M2618 1533 c7 -3 16 -2 19 1 4 3 -2 6 -13 5 -11 0 -14 -3 -6 -6z"/>
<path d="M3021 1411 c-22 -62 -23 -68 0 -41 20 24 21 25 16 3 -6 -27 11 -42
24 -22 6 10 9 5 9 -15 0 -36 13 -26 16 12 2 15 6 38 9 52 l7 25 -21 -25 -21
-25 0 31 c0 38 -25 42 -39 5z"/>
<path d="M970 1824 c0 -8 5 -12 10 -9 6 3 10 10 10 16 0 5 -4 9 -10 9 -5 0
-10 -7 -10 -16z"/>
<path d="M990 1666 c0 -2 7 -7 16 -10 8 -3 12 -2 9 4 -6 10 -25 14 -25 6z"/>
<path d="M656 3585 c-3 -8 -1 -15 4 -15 6 0 10 7 10 15 0 8 -2 15 -4 15 -2 0
-6 -7 -10 -15z"/>
<path d="M776 3361 c-4 -7 -5 -15 -2 -18 9 -9 19 4 14 18 -4 11 -6 11 -12 0z"/>
<path d="M740 3314 c0 -8 5 -12 10 -9 6 3 10 10 10 16 0 5 -4 9 -10 9 -5 0
-10 -7 -10 -16z"/>
<path d="M697 3253 c-22 -25 -25 -33 -13 -33 13 0 53 57 44 64 -2 2 -16 -12
-31 -31z"/>
<path d="M625 3148 c-49 -77 -49 -78 -36 -78 7 0 16 12 21 26 6 14 14 22 20
19 6 -3 10 4 10 16 0 12 7 30 16 40 9 10 14 23 13 28 -2 6 -22 -17 -44 -51z"/>
<path d="M357 2795 c-21 -25 -24 -34 -13 -38 14 -6 66 44 66 63 0 20 -26 8
-53 -25z"/>
<path d="M0 2716 c0 -58 2 -106 5 -106 2 0 11 15 20 33 8 17 28 46 43 64 43
50 62 76 62 85 0 13 -34 25 -82 27 l-48 3 0 -106z"/>
<path d="M310 2720 c0 -5 5 -10 10 -10 6 0 10 5 10 10 0 6 -4 10 -10 10 -5 0
-10 -4 -10 -10z"/>
<path d="M77 2653 c-4 -3 -7 -13 -7 -22 1 -13 3 -13 11 2 11 19 8 33 -4 20z"/>
<path d="M796 1613 c3 -55 3 -54 25 -43 27 15 23 64 -6 68 -17 2 -21 -2 -19
-25z"/>
<path d="M2891 584 c0 -11 3 -14 6 -6 3 7 2 16 -1 19 -3 4 -6 -2 -5 -13z"/>
</g>
</svg>
